<svg width="171" height="309" viewBox="0 0 171 309" fill="none" xmlns="http://www.w3.org/2000/svg">
<path d="M55.5023 0.0641165C54.4332 -0.213324 53.3416 0.428492 53.0641 1.49765C52.7867 2.56681 53.4285 3.65844 54.4977 3.93588L55.5023 0.0641165ZM0 309L21.7795 301.32L4.23834 286.298L0 309ZM166.5 145.5L168.442 145.98L166.5 145.5ZM54.4977 3.93588C76.0843 9.53748 107.714 28.692 131.92 54.692C156.151 80.7181 172.457 113.056 164.558 145.02L168.442 145.98C176.825 112.051 159.419 78.3576 134.848 51.9663C110.253 25.5489 77.9914 5.89988 55.5023 0.0641165L54.4977 3.93588ZM164.558 145.02C161.677 156.682 154.153 168.137 143.423 179.751C132.704 191.353 118.925 202.966 103.734 214.971C73.4471 238.907 37.5368 264.386 10.2423 293.967L13.182 296.68C40.195 267.404 75.6824 242.238 106.214 218.109C121.433 206.082 135.419 194.309 146.361 182.465C157.293 170.633 165.327 158.585 168.442 145.98L164.558 145.02Z" fill="#FBFBFB"/>
</svg>
