<svg width="53" height="47" viewBox="0 0 53 47" fill="none" xmlns="http://www.w3.org/2000/svg">
<path d="M35.3335 41.125V37.2083C35.3335 35.1308 34.4028 33.1384 32.7463 31.6693C31.0897 30.2003 28.8429 29.375 26.5002 29.375H11.0418C8.69908 29.375 6.45229 30.2003 4.79572 31.6693C3.13915 33.1384 2.2085 35.1308 2.2085 37.2083V41.125" stroke="#FCFF52" stroke-width="2" stroke-linecap="round" stroke-linejoin="round"/>
<path d="M18.7708 21.5417C23.6493 21.5417 27.6042 18.0346 27.6042 13.7083C27.6042 9.3821 23.6493 5.875 18.7708 5.875C13.8923 5.875 9.9375 9.3821 9.9375 13.7083C9.9375 18.0346 13.8923 21.5417 18.7708 21.5417Z" stroke="#FCFF52" stroke-width="2" stroke-linecap="round" stroke-linejoin="round"/>
<path d="M37.5415 21.5417L41.9582 25.4583L50.7915 17.625" stroke="#FCFF52" stroke-width="2" stroke-linecap="round" stroke-linejoin="round"/>
</svg>
