<svg width="53" height="47" viewBox="0 0 53 47" fill="none" xmlns="http://www.w3.org/2000/svg">
<path d="M4.4165 5.875H17.6665C20.0092 5.875 22.256 6.70029 23.9126 8.16933C25.5692 9.63836 26.4998 11.6308 26.4998 13.7083V41.125C26.4998 39.5669 25.8018 38.0725 24.5594 36.9707C23.317 35.869 21.6319 35.25 19.8748 35.25H4.4165V5.875Z" stroke="#FCFF52" stroke-width="2" stroke-linecap="round" stroke-linejoin="round"/>
<path d="M48.5833 5.875H35.3333C32.9906 5.875 30.7438 6.70029 29.0872 8.16933C27.4307 9.63836 26.5 11.6308 26.5 13.7083V41.125C26.5 39.5669 27.198 38.0725 28.4404 36.9707C29.6828 35.869 31.3679 35.25 33.125 35.25H48.5833V5.875Z" stroke="#FCFF52" stroke-width="2" stroke-linecap="round" stroke-linejoin="round"/>
</svg>
