<svg width="53" height="47" viewBox="0 0 53 47" fill="none" xmlns="http://www.w3.org/2000/svg">
<path d="M32.021 19.5833C30.1881 19.5833 28.7085 18.2712 28.7085 16.6458V6.85416C28.7085 5.22874 30.1881 3.91666 32.021 3.91666C33.8539 3.91666 35.3335 5.22874 35.3335 6.85416V16.6458C35.3335 18.2712 33.8539 19.5833 32.021 19.5833Z" stroke="#FCFF52" stroke-width="2" stroke-linecap="round" stroke-linejoin="round"/>
<path d="M45.271 19.5833H41.9585V16.6458C41.9585 15.0204 43.4381 13.7083 45.271 13.7083C47.1039 13.7083 48.5835 15.0204 48.5835 16.6458C48.5835 18.2713 47.1039 19.5833 45.271 19.5833Z" stroke="#FCFF52" stroke-width="2" stroke-linecap="round" stroke-linejoin="round"/>
<path d="M20.979 27.4167C22.8119 27.4167 24.2915 28.7287 24.2915 30.3542V40.1458C24.2915 41.7712 22.8119 43.0833 20.979 43.0833C19.1461 43.0833 17.6665 41.7712 17.6665 40.1458V30.3542C17.6665 28.7287 19.1461 27.4167 20.979 27.4167Z" stroke="#FCFF52" stroke-width="2" stroke-linecap="round" stroke-linejoin="round"/>
<path d="M7.729 27.4167H11.0415V30.3542C11.0415 31.9796 9.56192 33.2917 7.729 33.2917C5.89609 33.2917 4.4165 31.9796 4.4165 30.3542C4.4165 28.7287 5.89609 27.4167 7.729 27.4167Z" stroke="#FCFF52" stroke-width="2" stroke-linecap="round" stroke-linejoin="round"/>
<path d="M30.9165 28.3958C30.9165 26.7704 32.3961 25.4583 34.229 25.4583H45.2707C47.1036 25.4583 48.5832 26.7704 48.5832 28.3958C48.5832 30.0213 47.1036 31.3333 45.2707 31.3333H34.229C32.3961 31.3333 30.9165 30.0213 30.9165 28.3958Z" stroke="#FCFF52" stroke-width="2" stroke-linecap="round" stroke-linejoin="round"/>
<path d="M34.229 37.2083H30.9165V40.1458C30.9165 41.7713 32.3961 43.0833 34.229 43.0833C36.0619 43.0833 37.5415 41.7713 37.5415 40.1458C37.5415 38.5204 36.0619 37.2083 34.229 37.2083Z" stroke="#FCFF52" stroke-width="2" stroke-linecap="round" stroke-linejoin="round"/>
<path d="M22.0832 18.6042C22.0832 16.9787 20.6036 15.6667 18.7707 15.6667H7.729C5.89609 15.6667 4.4165 16.9787 4.4165 18.6042C4.4165 20.2296 5.89609 21.5417 7.729 21.5417H18.7707C20.6036 21.5417 22.0832 20.2296 22.0832 18.6042Z" stroke="#FCFF52" stroke-width="2" stroke-linecap="round" stroke-linejoin="round"/>
<path d="M18.771 9.79166H22.0835V6.85416C22.0835 5.22874 20.6039 3.91666 18.771 3.91666C16.9381 3.91666 15.4585 5.22874 15.4585 6.85416C15.4585 8.47957 16.9381 9.79166 18.771 9.79166Z" stroke="#FCFF52" stroke-width="2" stroke-linecap="round" stroke-linejoin="round"/>
</svg>
