<svg width="246" height="53" viewBox="0 0 246 53" fill="none" xmlns="http://www.w3.org/2000/svg">
<path d="M0.2565 26.008C0.2565 22.888 0.8325 19.84 1.9845 16.864C3.1365 13.84 4.8165 11.104 7.0245 8.656C9.2325 6.208 11.9205 4.264 15.0885 2.824C18.2565 1.336 21.8565 0.591997 25.8885 0.591997C30.6885 0.591997 34.8405 1.624 38.3445 3.688C41.8965 5.752 44.5365 8.44 46.2645 11.752L37.1925 18.088C36.4245 16.264 35.3925 14.848 34.0965 13.84C32.8485 12.832 31.4565 12.136 29.9205 11.752C28.4325 11.32 26.9925 11.104 25.6005 11.104C23.3445 11.104 21.3765 11.56 19.6965 12.472C18.0165 13.336 16.6245 14.512 15.5205 16C14.4165 17.488 13.6005 19.144 13.0725 20.968C12.5445 22.792 12.2805 24.616 12.2805 26.44C12.2805 28.456 12.5925 30.4 13.2165 32.272C13.8405 34.144 14.7285 35.8 15.8805 37.24C17.0805 38.68 18.5205 39.832 20.2005 40.696C21.8805 41.512 23.7285 41.92 25.7445 41.92C27.1845 41.92 28.6485 41.68 30.1365 41.2C31.6245 40.72 32.9925 39.976 34.2405 38.968C35.5365 37.912 36.5205 36.544 37.1925 34.864L46.8405 40.552C45.8325 43.048 44.1765 45.184 41.8725 46.96C39.5685 48.736 36.9525 50.104 34.0245 51.064C31.1445 51.976 28.2885 52.432 25.4565 52.432C21.7605 52.432 18.3525 51.688 15.2325 50.2C12.1605 48.664 9.4965 46.648 7.2405 44.152C5.0325 41.608 3.3045 38.776 2.0565 35.656C0.8565 32.488 0.2565 29.272 0.2565 26.008ZM64.8934 0.879997H77.6374L95.2054 52H83.1094L79.1494 40.552H63.2374L59.3494 52H47.2534L64.8934 0.879997ZM77.2054 32.416L71.2294 12.76L65.1094 32.416H77.2054ZM100.24 52V0.879997H122.056C124.504 0.879997 126.736 1.384 128.752 2.392C130.816 3.352 132.592 4.672 134.08 6.352C135.568 7.984 136.72 9.832 137.536 11.896C138.352 13.96 138.76 16.072 138.76 18.232C138.76 21.16 138.064 23.944 136.672 26.584C135.328 29.224 133.432 31.384 130.984 33.064C128.584 34.696 125.728 35.512 122.416 35.512H112.048V52H100.24ZM112.048 25.216H121.696C122.608 25.216 123.448 24.952 124.216 24.424C124.984 23.896 125.608 23.104 126.088 22.048C126.568 20.992 126.808 19.696 126.808 18.16C126.808 16.576 126.52 15.28 125.944 14.272C125.416 13.216 124.72 12.448 123.856 11.968C123.04 11.488 122.176 11.248 121.264 11.248H112.048V25.216ZM142.651 35.296L145.099 29.104H175.267L172.819 35.296H142.651ZM177.427 19.456L174.979 25.648H143.155L145.603 19.456H177.427ZM148.123 26.008C148.123 22.888 148.699 19.84 149.851 16.864C151.003 13.84 152.683 11.104 154.891 8.656C157.099 6.208 159.787 4.264 162.955 2.824C166.123 1.336 169.723 0.591997 173.755 0.591997C178.555 0.591997 182.707 1.624 186.211 3.688C189.763 5.752 192.403 8.44 194.131 11.752L185.059 18.088C184.339 16.264 183.331 14.848 182.035 13.84C180.739 12.832 179.347 12.136 177.859 11.752C176.371 11.32 174.907 11.104 173.467 11.104C171.211 11.104 169.243 11.56 167.563 12.472C165.883 13.336 164.491 14.512 163.387 16C162.283 17.488 161.467 19.144 160.939 20.968C160.411 22.792 160.147 24.616 160.147 26.44C160.147 28.456 160.459 30.4 161.083 32.272C161.707 34.144 162.595 35.8 163.747 37.24C164.947 38.68 166.387 39.832 168.067 40.696C169.747 41.512 171.595 41.92 173.611 41.92C175.051 41.92 176.515 41.68 178.003 41.2C179.539 40.72 180.931 39.976 182.179 38.968C183.427 37.912 184.387 36.544 185.059 34.864L194.779 40.552C193.723 43.048 192.043 45.184 189.739 46.96C187.435 48.736 184.819 50.104 181.891 51.064C179.011 51.976 176.155 52.432 173.323 52.432C169.627 52.432 166.243 51.688 163.171 50.2C160.099 48.664 157.435 46.648 155.179 44.152C152.923 41.608 151.171 38.776 149.923 35.656C148.723 32.488 148.123 29.272 148.123 26.008ZM210.173 0.879997L221.261 18.52L232.349 0.879997H245.165L228.245 26.8L244.589 52H231.773L221.261 35.08L210.749 52H197.861L214.205 26.8L197.285 0.879997H210.173Z" fill="white"/>
</svg>
